<svg id="visual" viewBox="0 0 1905 955" width="1905" height="955" xmlns="http://www.w3.org/2000/svg" xmlns:xlink="http://www.w3.org/1999/xlink" version="1.1"><rect x="0" y="0" width="1905" height="955" fill="#071e2e"></rect><path d="M1077 0L885 0L885 53L1063 53L1063 106L1106 106L1106 159L957 159L957 212L1034 212L1034 265L1164 265L1164 318L997 318L997 371L1118 371L1118 424L1031 424L1031 478L915 478L915 531L882 531L882 584L935 584L935 637L1117 637L1117 690L1073 690L1073 743L831 743L831 796L886 796L886 849L890 849L890 902L947 902L947 955L0 955L0 902L0 902L0 849L0 849L0 796L0 796L0 743L0 743L0 690L0 690L0 637L0 637L0 584L0 584L0 531L0 531L0 478L0 478L0 424L0 424L0 371L0 371L0 318L0 318L0 265L0 265L0 212L0 212L0 159L0 159L0 106L0 106L0 53L0 53L0 0L0 0Z" fill="#9900ff"></path><path d="M843 0L809 0L809 53L1042 53L1042 106L904 106L904 159L955 159L955 212L1014 212L1014 265L809 265L809 318L904 318L904 371L1043 371L1043 424L997 424L997 478L954 478L954 531L865 531L865 584L810 584L810 637L862 637L862 690L762 690L762 743L907 743L907 796L874 796L874 849L757 849L757 902L885 902L885 955L0 955L0 902L0 902L0 849L0 849L0 796L0 796L0 743L0 743L0 690L0 690L0 637L0 637L0 584L0 584L0 531L0 531L0 478L0 478L0 424L0 424L0 371L0 371L0 318L0 318L0 265L0 265L0 212L0 212L0 159L0 159L0 106L0 106L0 53L0 53L0 0L0 0Z" fill="#9100f2"></path><path d="M683 0L662 0L662 53L708 53L708 106L840 106L840 159L749 159L749 212L809 212L809 265L658 265L658 318L838 318L838 371L744 371L744 424L784 424L784 478L674 478L674 531L772 531L772 584L728 584L728 637L840 637L840 690L706 690L706 743L898 743L898 796L932 796L932 849L678 849L678 902L755 902L755 955L0 955L0 902L0 902L0 849L0 849L0 796L0 796L0 743L0 743L0 690L0 690L0 637L0 637L0 584L0 584L0 531L0 531L0 478L0 478L0 424L0 424L0 371L0 371L0 318L0 318L0 265L0 265L0 212L0 212L0 159L0 159L0 106L0 106L0 53L0 53L0 0L0 0Z" fill="#8a00e5"></path><path d="M743 0L606 0L606 53L816 53L816 106L661 106L661 159L610 159L610 212L761 212L761 265L733 265L733 318L683 318L683 371L777 371L777 424L757 424L757 478L621 478L621 531L706 531L706 584L736 584L736 637L657 637L657 690L836 690L836 743L646 743L646 796L606 796L606 849L616 849L616 902L784 902L784 955L0 955L0 902L0 902L0 849L0 849L0 796L0 796L0 743L0 743L0 690L0 690L0 637L0 637L0 584L0 584L0 531L0 531L0 478L0 478L0 424L0 424L0 371L0 371L0 318L0 318L0 265L0 265L0 212L0 212L0 159L0 159L0 106L0 106L0 53L0 53L0 0L0 0Z" fill="#8200d9"></path><path d="M565 0L674 0L674 53L571 53L571 106L574 106L574 159L709 159L709 212L530 212L530 265L633 265L633 318L676 318L676 371L663 371L663 424L529 424L529 478L631 478L631 531L621 531L621 584L583 584L583 637L513 637L513 690L636 690L636 743L583 743L583 796L535 796L535 849L544 849L544 902L492 902L492 955L0 955L0 902L0 902L0 849L0 849L0 796L0 796L0 743L0 743L0 690L0 690L0 637L0 637L0 584L0 584L0 531L0 531L0 478L0 478L0 424L0 424L0 371L0 371L0 318L0 318L0 265L0 265L0 212L0 212L0 159L0 159L0 106L0 106L0 53L0 53L0 0L0 0Z" fill="#7b00cc"></path><path d="M524 0L465 0L465 53L442 53L442 106L564 106L564 159L432 159L432 212L582 212L582 265L411 265L411 318L558 318L558 371L592 371L592 424L592 424L592 478L619 478L619 531L558 531L558 584L517 584L517 637L577 637L577 690L550 690L550 743L598 743L598 796L585 796L585 849L474 849L474 902L587 902L587 955L0 955L0 902L0 902L0 849L0 849L0 796L0 796L0 743L0 743L0 690L0 690L0 637L0 637L0 584L0 584L0 531L0 531L0 478L0 478L0 424L0 424L0 371L0 371L0 318L0 318L0 265L0 265L0 212L0 212L0 159L0 159L0 106L0 106L0 53L0 53L0 0L0 0Z" fill="#7300c0"></path><path d="M430 0L415 0L415 53L370 53L370 106L373 106L373 159L425 159L425 212L341 212L341 265L344 265L344 318L372 318L372 371L504 371L504 424L402 424L402 478L376 478L376 531L359 531L359 584L478 584L478 637L463 637L463 690L357 690L357 743L350 743L350 796L473 796L473 849L508 849L508 902L407 902L407 955L0 955L0 902L0 902L0 849L0 849L0 796L0 796L0 743L0 743L0 690L0 690L0 637L0 637L0 584L0 584L0 531L0 531L0 478L0 478L0 424L0 424L0 371L0 371L0 318L0 318L0 265L0 265L0 212L0 212L0 159L0 159L0 106L0 106L0 53L0 53L0 0L0 0Z" fill="#6c00b4"></path><path d="M309 0L363 0L363 53L394 53L394 106L353 106L353 159L283 159L283 212L324 212L324 265L325 265L325 318L355 318L355 371L338 371L338 424L290 424L290 478L322 478L322 531L238 531L238 584L299 584L299 637L388 637L388 690L345 690L345 743L324 743L324 796L306 796L306 849L394 849L394 902L279 902L279 955L0 955L0 902L0 902L0 849L0 849L0 796L0 796L0 743L0 743L0 690L0 690L0 637L0 637L0 584L0 584L0 531L0 531L0 478L0 478L0 424L0 424L0 371L0 371L0 318L0 318L0 265L0 265L0 212L0 212L0 159L0 159L0 106L0 106L0 53L0 53L0 0L0 0Z" fill="#6400a8"></path><path d="M279 0L258 0L258 53L251 53L251 106L207 106L207 159L289 159L289 212L248 212L248 265L219 265L219 318L286 318L286 371L289 371L289 424L271 424L271 478L149 478L149 531L188 531L188 584L249 584L249 637L159 637L159 690L211 690L211 743L275 743L275 796L178 796L178 849L193 849L193 902L157 902L157 955L0 955L0 902L0 902L0 849L0 849L0 796L0 796L0 743L0 743L0 690L0 690L0 637L0 637L0 584L0 584L0 531L0 531L0 478L0 478L0 424L0 424L0 371L0 371L0 318L0 318L0 265L0 265L0 212L0 212L0 159L0 159L0 106L0 106L0 53L0 53L0 0L0 0Z" fill="#5d009c"></path><path d="M108 0L124 0L124 53L141 53L141 106L77 106L77 159L123 159L123 212L145 212L145 265L90 265L90 318L74 318L74 371L126 371L126 424L175 424L175 478L96 478L96 531L102 531L102 584L99 584L99 637L126 637L126 690L165 690L165 743L156 743L156 796L88 796L88 849L81 849L81 902L163 902L163 955L0 955L0 902L0 902L0 849L0 849L0 796L0 796L0 743L0 743L0 690L0 690L0 637L0 637L0 584L0 584L0 531L0 531L0 478L0 478L0 424L0 424L0 371L0 371L0 318L0 318L0 265L0 265L0 212L0 212L0 159L0 159L0 106L0 106L0 53L0 53L0 0L0 0Z" fill="#560090"></path></svg>