<svg id="visual" viewBox="0 0 1905 550" width="1905" height="550" xmlns="http://www.w3.org/2000/svg" xmlns:xlink="http://www.w3.org/1999/xlink" version="1.1"><rect x="0" y="0" width="1905" height="550" fill="#071e2e"></rect><path d="M0 291L18.7 308.7C37.3 326.3 74.7 361.7 112 367C149.3 372.3 186.7 347.7 224 339.2C261.3 330.7 298.7 338.3 336 330.8C373.3 323.3 410.7 300.7 448 290.5C485.3 280.3 522.7 282.7 560 298.3C597.3 314 634.7 343 672 348.7C709.3 354.3 746.7 336.7 784 340.7C821.3 344.7 858.7 370.3 896.2 386.2C933.7 402 971.3 408 1008.8 401.8C1046.3 395.7 1083.7 377.3 1121 363.2C1158.3 349 1195.7 339 1233 337C1270.3 335 1307.7 341 1345 347C1382.3 353 1419.7 359 1457 366.8C1494.3 374.7 1531.7 384.3 1569 372C1606.3 359.7 1643.7 325.3 1681 332C1718.3 338.7 1755.7 386.3 1793 393.3C1830.3 400.3 1867.7 366.7 1886.3 349.8L1905 333L1905 551L1886.3 551C1867.7 551 1830.3 551 1793 551C1755.7 551 1718.3 551 1681 551C1643.7 551 1606.3 551 1569 551C1531.7 551 1494.3 551 1457 551C1419.7 551 1382.3 551 1345 551C1307.7 551 1270.3 551 1233 551C1195.7 551 1158.3 551 1121 551C1083.7 551 1046.3 551 1008.8 551C971.3 551 933.7 551 896.2 551C858.7 551 821.3 551 784 551C746.7 551 709.3 551 672 551C634.7 551 597.3 551 560 551C522.7 551 485.3 551 448 551C410.7 551 373.3 551 336 551C298.7 551 261.3 551 224 551C186.7 551 149.3 551 112 551C74.7 551 37.3 551 18.7 551L0 551Z" fill="#874062"></path><path d="M0 371L18.7 383.5C37.3 396 74.7 421 112 419.7C149.3 418.3 186.7 390.7 224 382.5C261.3 374.3 298.7 385.7 336 396.8C373.3 408 410.7 419 448 408C485.3 397 522.7 364 560 360.3C597.3 356.7 634.7 382.3 672 384.8C709.3 387.3 746.7 366.7 784 366.2C821.3 365.7 858.7 385.3 896.2 389.3C933.7 393.3 971.3 381.7 1008.8 391.2C1046.3 400.7 1083.7 431.3 1121 433.3C1158.3 435.3 1195.7 408.7 1233 391.5C1270.3 374.3 1307.7 366.7 1345 365C1382.3 363.3 1419.7 367.7 1457 377.2C1494.3 386.7 1531.7 401.3 1569 415.7C1606.3 430 1643.7 444 1681 451.5C1718.3 459 1755.7 460 1793 439.3C1830.3 418.7 1867.7 376.3 1886.3 355.2L1905 334L1905 551L1886.3 551C1867.7 551 1830.3 551 1793 551C1755.7 551 1718.3 551 1681 551C1643.7 551 1606.3 551 1569 551C1531.7 551 1494.3 551 1457 551C1419.7 551 1382.3 551 1345 551C1307.7 551 1270.3 551 1233 551C1195.7 551 1158.3 551 1121 551C1083.7 551 1046.3 551 1008.8 551C971.3 551 933.7 551 896.2 551C858.7 551 821.3 551 784 551C746.7 551 709.3 551 672 551C634.7 551 597.3 551 560 551C522.7 551 485.3 551 448 551C410.7 551 373.3 551 336 551C298.7 551 261.3 551 224 551C186.7 551 149.3 551 112 551C74.7 551 37.3 551 18.7 551L0 551Z" fill="#7c4474"></path><path d="M0 407L18.7 420C37.3 433 74.7 459 112 467.8C149.3 476.7 186.7 468.3 224 463C261.3 457.7 298.7 455.3 336 445.7C373.3 436 410.7 419 448 417.5C485.3 416 522.7 430 560 430C597.3 430 634.7 416 672 420.7C709.3 425.3 746.7 448.7 784 454.5C821.3 460.3 858.7 448.7 896.2 447.8C933.7 447 971.3 457 1008.8 450.7C1046.3 444.3 1083.7 421.7 1121 408.3C1158.3 395 1195.7 391 1233 390.3C1270.3 389.7 1307.7 392.3 1345 402.3C1382.3 412.3 1419.7 429.7 1457 443.8C1494.3 458 1531.7 469 1569 468.8C1606.3 468.7 1643.7 457.3 1681 444C1718.3 430.7 1755.7 415.3 1793 421C1830.3 426.7 1867.7 453.3 1886.3 466.7L1905 480L1905 551L1886.3 551C1867.7 551 1830.3 551 1793 551C1755.7 551 1718.3 551 1681 551C1643.7 551 1606.3 551 1569 551C1531.7 551 1494.3 551 1457 551C1419.7 551 1382.3 551 1345 551C1307.7 551 1270.3 551 1233 551C1195.7 551 1158.3 551 1121 551C1083.7 551 1046.3 551 1008.8 551C971.3 551 933.7 551 896.2 551C858.7 551 821.3 551 784 551C746.7 551 709.3 551 672 551C634.7 551 597.3 551 560 551C522.7 551 485.3 551 448 551C410.7 551 373.3 551 336 551C298.7 551 261.3 551 224 551C186.7 551 149.3 551 112 551C74.7 551 37.3 551 18.7 551L0 551Z" fill="#694a84"></path><path d="M0 454L18.7 460.3C37.3 466.7 74.7 479.3 112 479.8C149.3 480.3 186.7 468.7 224 464.7C261.3 460.7 298.7 464.3 336 472.3C373.3 480.3 410.7 492.7 448 500.3C485.3 508 522.7 511 560 510.2C597.3 509.3 634.7 504.7 672 495.5C709.3 486.3 746.7 472.7 784 469.3C821.3 466 858.7 473 896.2 478C933.7 483 971.3 486 1008.8 488.3C1046.3 490.7 1083.7 492.3 1121 491C1158.3 489.7 1195.7 485.3 1233 481.8C1270.3 478.3 1307.7 475.7 1345 471C1382.3 466.3 1419.7 459.7 1457 467.2C1494.3 474.7 1531.7 496.3 1569 496C1606.3 495.7 1643.7 473.3 1681 465.7C1718.3 458 1755.7 465 1793 466.3C1830.3 467.7 1867.7 463.3 1886.3 461.2L1905 459L1905 551L1886.3 551C1867.7 551 1830.3 551 1793 551C1755.7 551 1718.3 551 1681 551C1643.7 551 1606.3 551 1569 551C1531.7 551 1494.3 551 1457 551C1419.7 551 1382.3 551 1345 551C1307.7 551 1270.3 551 1233 551C1195.7 551 1158.3 551 1121 551C1083.7 551 1046.3 551 1008.8 551C971.3 551 933.7 551 896.2 551C858.7 551 821.3 551 784 551C746.7 551 709.3 551 672 551C634.7 551 597.3 551 560 551C522.7 551 485.3 551 448 551C410.7 551 373.3 551 336 551C298.7 551 261.3 551 224 551C186.7 551 149.3 551 112 551C74.7 551 37.3 551 18.7 551L0 551Z" fill="#4c5290"></path></svg>